<svg width="100" height="100" fill="none" xmlns="http://www.w3.org/2000/svg"><path d="M63.675 7.395c.76.942 1.148 2.215 1.92 4.757l16.918 55.575a70.375 70.375 0 0 0-20.226-6.847L51.273 23.656a1.432 1.432 0 0 0-2.75.003L37.64 60.861a70.396 70.396 0 0 0-20.315 6.858L34.324 12.14c.778-2.54 1.166-3.81 1.925-4.753a6.269 6.269 0 0 1 2.534-1.873c1.12-.45 2.45-.45 5.105-.45h12.143c2.658 0 3.989 0 5.112.453a6.238 6.238 0 0 1 2.532 1.877Z" fill="url(#a)"/><path d="M65.698 70.37c-2.789 2.387-8.356 4.014-14.768 4.014-7.867 0-14.464-2.451-16.214-5.747-.625 1.889-.765 4.05-.765 5.433 0 0-.412 6.777 4.303 11.492a4.43 4.43 0 0 1 4.431-4.43c4.195 0 4.193 3.658 4.19 6.63v.263c0 4.51 2.755 8.374 6.674 10.004a9.077 9.077 0 0 1-.915-3.983c0-4.303 2.523-5.902 5.459-7.764 2.335-1.48 4.929-3.125 6.714-6.423a12.12 12.12 0 0 0 1.465-5.79 12.146 12.146 0 0 0-.574-3.699Z" fill="#FF5D01"/><path d="M65.698 70.37c-2.789 2.387-8.356 4.014-14.768 4.014-7.867 0-14.464-2.451-16.214-5.747-.625 1.889-.765 4.05-.765 5.433 0 0-.412 6.777 4.303 11.492a4.43 4.43 0 0 1 4.431-4.43c4.195 0 4.193 3.658 4.19 6.63v.263c0 4.51 2.755 8.374 6.674 10.004a9.077 9.077 0 0 1-.915-3.983c0-4.303 2.523-5.902 5.459-7.764 2.335-1.48 4.929-3.125 6.714-6.423a12.12 12.12 0 0 0 1.465-5.79 12.146 12.146 0 0 0-.574-3.699Z" fill="url(#b)"/><defs><linearGradient id="a" x1="68.984" y1="2.118" x2="49.918" y2="67.727" gradientUnits="userSpaceOnUse"><stop stop-color="#000014"/><stop offset="1" stop-color="#150426"/></linearGradient><linearGradient id="b" x1="78.256" y1="50.973" x2="61.744" y2="85.54" gradientUnits="userSpaceOnUse"><stop stop-color="#FF1639"/><stop offset="1" stop-color="#FF1639" stop-opacity="0"/></linearGradient></defs></svg>