<svg width="128" height="128" fill="none" xmlns="http://www.w3.org/2000/svg"><path d="M42.946 4.47h37.39L41.523 119.474a5.962 5.962 0 0 1-5.648 4.056h-29.1a5.949 5.949 0 0 1-5.641-7.855L37.298 8.525a5.963 5.963 0 0 1 5.649-4.057v.002Z" fill="url(#a)"/><path d="M97.28 81.607H37.987a2.744 2.744 0 0 0-1.874 4.75l38.1 35.563a5.99 5.99 0 0 0 4.087 1.61h33.574L97.28 81.607Z" fill="#0078D4"/><path d="M42.946 4.47a5.913 5.913 0 0 0-5.662 4.134L1.18 115.577a5.947 5.947 0 0 0 5.612 7.953h29.85a6.381 6.381 0 0 0 4.897-4.164l7.2-21.22 25.719 23.988a6.089 6.089 0 0 0 3.828 1.396h33.449l-14.67-41.923-42.766.01L80.471 4.47H42.946Z" fill="url(#b)"/><path d="M90.704 8.52a5.952 5.952 0 0 0-5.642-4.05h-41.67a5.954 5.954 0 0 1 5.64 4.05l36.164 107.154a5.95 5.95 0 0 1-5.64 7.857h41.672a5.955 5.955 0 0 0 5.64-7.857L90.704 8.519Z" fill="url(#c)"/><defs><linearGradient id="a" x1="56.574" y1="13.293" x2="17.743" y2="128.008" gradientUnits="userSpaceOnUse"><stop stop-color="#114A8B"/><stop offset="1" stop-color="#0669BC"/></linearGradient><linearGradient id="b" x1="68.704" y1="66.753" x2="59.722" y2="69.79" gradientUnits="userSpaceOnUse"><stop stop-opacity=".3"/><stop offset=".071" stop-opacity=".2"/><stop offset=".321" stop-opacity=".1"/><stop offset=".623" stop-opacity=".05"/><stop offset="1" stop-opacity="0"/></linearGradient><linearGradient id="c" x1="63.764" y1="9.946" x2="106.389" y2="123.507" gradientUnits="userSpaceOnUse"><stop stop-color="#3CCBF4"/><stop offset="1" stop-color="#2892DF"/></linearGradient></defs></svg>