<svg xmlns="http://www.w3.org/2000/svg" width="60" height="60" fill="none"><g clip-path="url(#a)"><mask id="b" width="60" height="60" x="0" y="0" maskUnits="userSpaceOnUse" style="mask-type:luminance"><path fill="#fff" d="M60 0H0v60h60V0Z"/></mask><g mask="url(#b)"><path fill="#fff" d="M30 60c16.569 0 30-13.431 30-30C60 13.431 46.569 0 30 0 13.431 0 0 13.431 0 30c0 16.569 13.431 30 30 30Z"/><path fill="#319795" d="M30 0C13.38 0 0 13.38 0 30c0 16.62 13.38 30 30 30 16.62 0 30-13.38 30-30C60 13.38 46.62 0 30 0Zm7 10.832c.325-.01.62.34.428.695l-7.61 13.95a.466.466 0 0 0 .41.69h13.15c.425 0 .63.518.32.808l-23.05 21.512c-.413.386-1.026-.157-.695-.614l10.91-15.053a.467.467 0 0 0-.378-.74H16.567a.468.468 0 0 1-.327-.8l20.45-20.308a.45.45 0 0 1 .31-.14Z"/></g></g><defs><clipPath id="a"><path fill="#fff" d="M0 0h60v60H0z"/></clipPath></defs></svg>