<svg width="800" height="800" viewBox="0 0 800 800" fill="none" xmlns="http://www.w3.org/2000/svg">
<path d="M666.9 601.65C661.9 596.05 659.6 585.7 657.05 574.65C654.55 563.65 651.7 551.8 642.65 544.15V544.1C639.348 541.239 635.576 538.972 631.5 537.4C644.1 500.15 639.15 463.05 626.5 429.55C610.9 388.4 583.75 352.55 563 328.05C539.8 298.75 517.1 270.95 517.5 229.9C518.2 167.2 524.4 50.95 414.1 50.8C409.6 50.8 404.95 51 400.1 51.4C276.8 61.3 309.5 191.55 307.65 235.15C305.4 267.05 298.95 292.15 277 323.35C251.25 354 215 403.55 197.8 455.2C189.7 479.55 185.8 504.4 189.4 527.9C188.25 528.9 187.2 529.95 186.2 531.05C178.65 539.1 173.05 548.9 166.8 555.5C161 561.3 152.7 563.5 143.6 566.75C134.45 570.05 124.45 574.85 118.4 586.5V586.55C115.716 591.788 114.392 597.617 114.55 603.5C114.55 608.9 115.35 614.35 116.15 619.6C117.85 630.6 119.55 640.95 117.3 647.95C110.1 667.7 109.15 681.3 114.25 691.2C119.35 701.15 129.75 705.5 141.6 707.95C165.25 712.95 197.3 711.7 222.55 725.05C249.55 739.2 277 744.2 298.85 739.25C306.49 737.75 313.668 734.469 319.802 729.673C325.935 724.877 330.851 718.702 334.15 711.65C351.25 711.55 370 704.35 400.05 702.65C420.45 701.05 445.95 709.9 475.2 708.3C475.958 711.477 477.1 714.549 478.6 717.45L478.65 717.5C490 740.25 511.15 750.6 533.65 748.85C556.15 747.05 580.05 733.8 599.4 710.75C617.9 688.35 648.5 679.1 668.8 666.85C678.95 660.7 687.2 653.05 687.8 641.9C688.45 630.8 681.9 618.35 666.9 601.65Z" fill="black"/>
<path d="M678.55 641.4C678.2 648.25 673.2 653.4 664.05 658.9C645.65 670 613.1 679.6 592.35 704.8C574.25 726.3 552.25 738.05 532.85 739.6C513.5 741.1 496.8 733.1 486.9 713.3V713.2C480.75 701.55 483.3 683.2 488.45 663.85C493.6 644.5 501 624.6 502 608.45C503 587.7 504.2 569.6 507.7 555.65C511.2 541.65 516.65 532.25 526.35 526.9C526.796 526.659 527.246 526.426 527.7 526.2C528.8 544.15 537.7 562.45 553.4 566.4C570.55 570.9 595.3 556.2 605.75 544.15L611.85 543.95C621.05 543.7 628.7 544.25 636.6 551.1C642.65 556.2 645.55 565.95 648.05 576.75C650.55 587.6 652.55 599.4 660 607.8C674.35 623.8 679 634.5 678.55 641.4ZM329.6 692.15V692.3C327.9 714.05 315.6 725.9 296.8 730.2C277.95 734.5 252.4 730.2 226.9 716.9C198.65 701.9 165.05 703.4 143.55 698.9C132.75 696.65 125.7 693.25 122.5 687C119.3 680.7 119.2 669.75 126.05 651V650.95L126.1 650.85C129.5 640.4 127 628.95 125.35 618.2C123.7 607.5 122.9 597.7 126.55 590.9L126.6 590.85C131.3 581.8 138.2 578.55 146.75 575.5C155.25 572.4 165.4 570 173.4 562L173.45 561.95C180.85 554.1 186.5 544.3 193 537.35C198.5 531.5 204 527.6 212.25 527.55H212.5C214.058 527.564 215.612 527.698 217.15 527.95C228.15 529.6 237.7 537.3 246.95 549.8L273.6 598.35V598.4C280.7 613.2 295.65 629.5 308.35 646.1C321.05 662.75 330.85 679.4 329.6 692.15Z" fill="#F8BF11"/>
<path d="M462.5 239.4C460.35 235.2 456 231.2 448.5 228.15C433 221.5 426.3 221.05 417.65 215.45C403.65 206.4 392 203.25 382.35 203.25C377.717 203.272 373.121 204.067 368.75 205.6C356.95 209.6 349.15 218.1 344.25 222.7C343.25 223.65 342.05 224.45 339.05 226.7C336.05 228.85 331.55 232.2 325.05 237.1C319.2 241.4 317.35 247.1 319.35 253.7C321.35 260.3 327.7 267.95 339.35 274.55C346.6 278.8 351.6 284.55 357.3 289.1C360.163 291.48 363.343 293.449 366.75 294.95C370.35 296.5 374.55 297.55 379.75 297.85C392.15 298.6 401.25 294.85 409.25 290.3C417.25 285.7 424.05 280.1 431.85 277.55C447.85 272.55 459.3 262.5 462.9 252.9C463.808 250.753 464.243 248.436 464.174 246.106C464.105 243.776 463.534 241.489 462.5 239.4Z" fill="#F8BF11"/>
<path d="M421.9 263C409.15 269.65 394.3 277.7 378.45 277.7C362.65 277.7 350.15 270.4 341.2 263.25C336.7 259.75 333.05 256.15 330.3 253.6C325.5 249.85 326.1 244.55 328.05 244.7C331.35 245.1 331.85 249.45 333.9 251.4C336.7 254 340.2 257.4 344.45 260.75C352.95 267.5 364.3 274.05 378.45 274.05C392.65 274.05 409.15 265.75 419.25 260.05C425 256.85 432.25 251.1 438.2 246.75C442.7 243.4 442.55 239.4 446.3 239.85C450.05 240.3 447.3 244.3 442.05 248.85C436.8 253.45 428.55 259.55 421.9 263Z" fill="#202020"/>
<path d="M616.85 534.7C615.117 534.648 613.383 534.648 611.65 534.7H611.15C615.55 520.85 605.85 510.7 580.1 499.05C553.4 487.3 532.1 488.45 528.5 512.3C528.25 513.55 528.05 514.8 527.95 516.1C525.879 516.834 523.872 517.737 521.95 518.8C509.35 525.65 502.5 538.1 498.7 553.4C494.9 568.65 493.8 587.1 492.75 607.9C492.1 618.3 487.8 632.4 483.45 647.4C439.7 678.6 378.95 692.1 327.35 656.9C323.85 651.4 319.85 645.9 315.7 640.5C313.065 637.058 310.399 633.642 307.7 630.25C312.293 630.373 316.86 629.521 321.1 627.75C323.218 626.861 325.134 625.552 326.733 623.902C328.331 622.252 329.579 620.296 330.4 618.15C333.55 609.65 330.4 597.75 320.3 584.15C310.25 570.5 293.2 555.15 268.15 539.75C249.75 528.25 239.45 514.25 234.65 499.05C229.8 483.8 230.45 467.3 234.15 451.05C241.3 419.8 259.65 389.4 271.3 370.35C274.45 368.05 272.45 374.65 259.5 398.7C247.9 420.7 226.15 471.45 255.9 511.1C256.7 482.9 263.4 454.1 274.75 427.25C291.2 389.9 325.65 325.2 328.35 273.6C329.8 274.6 334.6 277.9 336.8 279.1C343.1 282.85 347.85 288.3 354 293.25C362.02 300.019 372.261 303.581 382.75 303.25C394.75 303.25 404.1 299.3 411.85 294.85C420.35 290.05 427.05 284.65 433.5 282.6C447 278.35 457.8 270.85 463.9 262.1C474.4 303.6 498.9 363.45 514.6 392.65C522.95 408.15 539.6 441.1 546.75 480.75C551.3 480.65 556.3 481.25 561.7 482.65C580.45 434 545.75 381.55 529.9 366.95C523.5 360.75 523.15 357.95 526.4 358.1C543.55 373.3 566.15 403.95 574.4 438.5C578.15 454.25 578.9 470.8 574.9 487.15C576.9 488 578.9 488.85 580.9 489.85C611.05 504.5 622.2 517.25 616.85 534.7Z" fill="white"/>
<path d="M463.9 191.65C464.116 203.482 460.328 215.041 453.15 224.45C449.56 222.846 445.926 221.346 442.25 219.95L435.9 217.7C437.35 215.95 440.15 213.95 441.25 211.35C442.834 207.491 443.681 203.37 443.75 199.2L443.8 198.7C443.924 194.694 443.331 190.698 442.05 186.9C441.044 183.432 439.187 180.27 436.65 177.7C435.644 176.632 434.437 175.773 433.099 175.173C431.76 174.572 430.316 174.242 428.85 174.2H428.5C425.7 174.239 423.013 175.307 420.95 177.2C418.22 179.564 416.124 182.571 414.85 185.95C413.274 189.811 412.427 193.93 412.35 198.1V198.6C412.271 200.942 412.422 203.287 412.8 205.6C407.128 202.982 401.195 200.971 395.1 199.6C394.81 197.394 394.643 195.174 394.6 192.95V192.3C394.388 184.616 395.892 176.981 399 169.95C401.647 163.477 405.96 157.819 411.5 153.55C416.4 149.593 422.502 147.424 428.8 147.4H429.1C435.35 147.4 440.7 149.2 446.2 153.2C451.863 157.345 456.302 162.942 459.05 169.4C462.2 176.3 463.75 183.05 463.9 191.05L463.95 191.65H463.9ZM369.4 199.85C364.505 201.251 359.839 203.356 355.55 206.1C355.885 203.613 355.919 201.095 355.65 198.6V198.2C355.344 194.896 354.535 191.659 353.25 188.6C352.221 185.908 350.577 183.494 348.45 181.55C347.668 180.783 346.736 180.187 345.711 179.8C344.687 179.412 343.594 179.242 342.5 179.3C340.4 179.5 338.65 180.5 337 182.55C335.244 184.843 334.045 187.514 333.5 190.35C332.72 193.708 332.501 197.171 332.85 200.6V201C333.137 204.323 333.947 207.58 335.25 210.65C336.447 213.724 338.451 216.419 341.05 218.45L335.95 222.45L332.05 225.25C328.586 221.843 325.862 217.758 324.05 213.25C321.4 207.25 319.95 201.25 319.55 194.2V194.15C319.092 187.567 319.855 180.956 321.8 174.65C323.292 169.151 326.167 164.125 330.15 160.05C331.821 158.205 333.857 156.728 336.13 155.712C338.402 154.696 340.861 154.164 343.35 154.15C347.55 154.15 351.25 155.55 355.1 158.65C359.499 162.263 362.92 166.922 365.05 172.2C367.7 178.2 369.05 184.2 369.5 191.3C369.65 194.3 369.65 197.1 369.4 199.85Z" fill="white"/>
<path d="M390.3 216.75C390.8 218.45 393.55 218.2 395.15 219C396.5 219.7 397.65 221.25 399.15 221.3C400.65 221.35 402.95 220.8 403.15 219.3C403.4 217.4 400.55 216.15 398.75 215.45C396.4 214.5 393.4 214.05 391.2 215.3C390.7 215.55 390.15 216.15 390.3 216.75ZM374.2 216.75C373.7 218.45 370.95 218.2 369.4 219C368 219.7 366.9 221.25 365.35 221.3C363.85 221.35 361.55 220.8 361.35 219.3C361.1 217.4 363.95 216.15 365.75 215.45C368.1 214.5 371.15 214.05 373.35 215.3C373.85 215.55 374.35 216.15 374.2 216.75Z" fill="#202020"/>
</svg>
