<svg width="256" height="256" fill="none" xmlns="http://www.w3.org/2000/svg"><g clip-path="url(#a)"><path fill="#0E1337" d="M0 0h256v256H0z"/><g filter="url(#b)"><path d="M116.625 177.451c-12.014 14.6-31.723 19.992-49.32 13.497C49.72 184.441 38 167.438 38 148.4c0-20.716 14.489-34.052 33.814-51.837C88.676 81.043 109.223 62.132 127 32c17.777 30.132 38.324 49.043 55.174 64.563C201.5 114.348 216 127.684 216 148.4c0 19.038-11.72 36.041-29.305 42.548-17.597 6.495-37.306 1.103-49.32-13.497a259.932 259.932 0 0 0 20.117 37.593c2.938 4.53-.26 10.956-5.572 10.956h-49.84c-5.323 0-8.522-6.426-5.572-10.956a259.96 259.96 0 0 0 20.117-37.593Z" fill="#CA1D1D"/></g></g><defs><clipPath id="a"><rect width="256" height="256" rx="36" fill="#fff"/></clipPath><filter id="b" x="36" y="32" width="182" height="198" filterUnits="userSpaceOnUse" color-interpolation-filters="sRGB"><feFlood flood-opacity="0" result="BackgroundImageFix"/><feColorMatrix in="SourceAlpha" values="0 0 0 0 0 0 0 0 0 0 0 0 0 0 0 0 0 0 127 0" result="hardAlpha"/><feOffset dy="2"/><feGaussianBlur stdDeviation="1"/><feComposite in2="hardAlpha" operator="out"/><feColorMatrix values="0 0 0 0 0 0 0 0 0 0 0 0 0 0 0 0 0 0 0.2 0"/><feBlend in2="BackgroundImageFix" result="effect1_dropShadow_448_91"/><feBlend in="SourceGraphic" in2="effect1_dropShadow_448_91" result="shape"/></filter></defs></svg>