<svg width="500" height="500" viewBox="0 0 500 500" fill="none" xmlns="http://www.w3.org/2000/svg">
<g clip-path="url(#clip0_707_152)">
<rect width="500" height="500" rx="48" fill="#02000B"/>
<g filter="url(#filter0_i_707_152)">
<path d="M231.348 337.412C209.751 363.753 174.317 373.48 142.683 361.762C111.069 350.022 90 319.346 90 285C90 247.625 116.047 223.566 150.79 191.48C181.104 163.48 218.04 129.361 250 75C281.96 129.361 318.896 163.48 349.19 191.48C383.932 223.566 410 247.625 410 285C410 319.346 388.931 350.022 357.317 361.762C325.683 373.48 290.249 363.753 268.652 337.412C278.851 360.994 290.939 383.685 304.816 405.234C310.099 413.406 304.349 425 294.8 425H205.2C195.631 425 189.881 413.406 195.184 405.234C209.061 383.685 221.149 360.994 231.348 337.412Z" fill="#CA1D1D"/>
</g>
</g>
<defs>
<filter id="filter0_i_707_152" x="90" y="75" width="320" height="352" filterUnits="userSpaceOnUse" color-interpolation-filters="sRGB">
<feFlood flood-opacity="0" result="BackgroundImageFix"/>
<feBlend mode="normal" in="SourceGraphic" in2="BackgroundImageFix" result="shape"/>
<feColorMatrix in="SourceAlpha" type="matrix" values="0 0 0 0 0 0 0 0 0 0 0 0 0 0 0 0 0 0 127 0" result="hardAlpha"/>
<feOffset dy="2"/>
<feGaussianBlur stdDeviation="1"/>
<feComposite in2="hardAlpha" operator="arithmetic" k2="-1" k3="1"/>
<feColorMatrix type="matrix" values="0 0 0 0 0.792157 0 0 0 0 0.113725 0 0 0 0 0.113725 0 0 0 0.2 0"/>
<feBlend mode="normal" in2="shape" result="effect1_innerShadow_707_152"/>
</filter>
<clipPath id="clip0_707_152">
<rect width="500" height="500" fill="white"/>
</clipPath>
</defs>
</svg>
