<svg width="128" height="128" fill="none" xmlns="http://www.w3.org/2000/svg"><g clip-path="url(#a)"><path d="M107.96 0H20.0404C8.97239 0 0 8.97239 0 20.0404V107.96C0 119.028 8.97239 128 20.0404 128H107.96c11.068 0 20.04-8.972 20.04-20.04V20.0404C128 8.97239 119.028 0 107.96 0Z" fill="#0E1337"/><path d="M59.2253 86.3775c-5.529 6.7431-14.6 9.2334-22.6984 6.2335C28.4337 89.6056 23.04 81.7527 23.04 72.96c0-9.568 6.6681-15.7271 15.5623-23.9411C46.3625 41.8509 55.8184 33.1166 64 19.2c8.1817 13.9166 17.6375 22.6509 25.3927 29.8189C98.2868 57.2329 104.96 63.392 104.96 72.96c0 8.7927-5.3936 16.6456-13.4868 19.651-8.0984 2.9999-17.1694.5096-22.6984-6.2335 2.6111 6.037 5.7058 11.8457 9.2583 17.3625 1.3523 2.092-.1197 5.06-2.5643 5.06H52.5312c-2.4498 0-3.9218-2.968-2.5642-5.06 3.5525-5.5168 6.6472-11.3255 9.2583-17.3625Z" fill="#A41B22"/></g><defs><clipPath id="a"><path fill="#fff" d="M0 0h128v128H0z"/></clipPath></defs></svg>