<svg xmlns="http://www.w3.org/2000/svg" width="17" height="17" fill="none"><g clip-path="url(#a)"><path fill="#0E1337" d="M14.28.085H2.72A2.635 2.635 0 0 0 .085 2.72v11.56a2.635 2.635 0 0 0 2.635 2.635h11.56a2.635 2.635 0 0 0 2.635-2.635V2.72A2.635 2.635 0 0 0 14.28.085Z"/><path fill="#CA1D1D" d="M7.866 11.302a2.685 2.685 0 0 1-3.015.828A2.776 2.776 0 0 1 3.06 9.52c0-1.27.886-2.089 2.067-3.18 1.03-.952 2.286-2.112 3.373-3.96 1.087 1.848 2.342 3.008 3.373 3.96 1.18 1.091 2.067 1.91 2.067 3.18 0 1.168-.716 2.21-1.791 2.61a2.685 2.685 0 0 1-3.015-.828 15.96 15.96 0 0 0 1.23 2.306c.18.278-.016.672-.34.672H6.976c-.326 0-.521-.394-.34-.672.471-.733.882-1.504 1.229-2.306Z"/></g><defs><clipPath id="a"><path fill="#fff" d="M0 0h17v17H0z"/></clipPath></defs></svg>