<svg width="100" height="100" fill="none" xmlns="http://www.w3.org/2000/svg"><g clip-path="url(#a)"><path d="M50 100c27.6142 0 50-22.3858 50-50S77.6142 0 50 0 0 22.3858 0 50s22.3858 50 50 50Z" fill="#000"/><path d="M50 2C23.525 2 2 23.525 2 50s21.525 48 48 48c8.4 0 16.275-2.175 23.1-5.925l-34.8-48.6v27.45h-5.1V33.35h5.1L76.175 90.2C89.3 81.6499 98 66.875 98 50 98 23.525 76.475 2 50 2Zm16.575 63.45-5.625-8.475V33.35h5.625v32.1Z" fill="#fff"/></g><defs><clipPath id="a"><path fill="#fff" d="M0 0h100v100H0z"/></clipPath></defs></svg>