<svg xmlns="http://www.w3.org/2000/svg" width="60" height="60" fill="none"><g clip-path="url(#a)"><mask id="b" width="60" height="60" x="0" y="0" maskUnits="userSpaceOnUse" style="mask-type:luminance"><path fill="#fff" d="M60 0H0v60h60V0Z"/></mask><g mask="url(#b)"><path fill="#000" d="M30 60c16.569 0 30-13.431 30-30C60 13.431 46.569 0 30 0 13.431 0 0 13.431 0 30c0 16.569 13.431 30 30 30Z"/><path fill="#fff" d="M30 0C13.453 0 0 13.453 0 30s13.453 30 30 30c5.25 0 10.172-1.36 14.438-3.703l-21.75-30.375v17.156H19.5V19.594h3.188l23.671 35.531C54.562 49.781 60 40.547 60 30 60 13.453 46.547 0 30 0Zm10.36 39.656-3.516-5.297V19.594h3.515v20.062Z"/></g></g><defs><clipPath id="a"><path fill="#fff" d="M0 0h60v60H0z"/></clipPath></defs></svg>