<svg xmlns="http://www.w3.org/2000/svg" width="100" height="100" fill="none"><mask id="a" width="93" height="98" x="3" y="1" maskUnits="userSpaceOnUse" style="mask-type:luminance"><path fill="#fff" d="M3 1h93v98H3V1Z"/></mask><g mask="url(#a)"><path fill="url(#b)" d="m95.615 17.275-3.344 52.29L60.296 1l35.32 16.275ZM73.468 84.888l-24.16 13.727-24.161-13.727L30.06 73.03h38.493l4.914 11.858Zm-24.16-57.862 12.66 30.647h-25.32l12.66-30.647ZM6.31 69.565 3 17.275 38.32 1 6.31 69.565Z"/><path fill="url(#c)" d="m95.615 17.275-3.344 52.29L60.296 1l35.32 16.275ZM73.468 84.888l-24.16 13.727-24.161-13.727L30.06 73.03h38.493l4.914 11.858Zm-24.16-57.862 12.66 30.647h-25.32l12.66-30.647ZM6.31 69.565 3 17.275 38.32 1 6.31 69.565Z"/></g><defs><linearGradient id="b" x1="23.439" x2="97.063" y1="89.761" y2="54.623" gradientUnits="userSpaceOnUse"><stop stop-color="#E40035"/><stop offset=".24" stop-color="#F60A48"/><stop offset=".352" stop-color="#F20755"/><stop offset=".494" stop-color="#DC087D"/><stop offset=".745" stop-color="#9717E7"/><stop offset="1" stop-color="#6C00F5"/></linearGradient><linearGradient id="c" x1="20.109" x2="68.133" y1="12.77" y2="67.788" gradientUnits="userSpaceOnUse"><stop stop-color="#FF31D9"/><stop offset="1" stop-color="#FF5BE1" stop-opacity="0"/></linearGradient></defs></svg>