<svg width="128" height="128" viewBox="0 0 128 128" fill="none" xmlns="http://www.w3.org/2000/svg">
<g clip-path="url(#clip0_773_2025)">
<path d="M128 0H0V128H128V0Z" fill="#512BD4"/>
<path d="M22.8139 81.7777C21.9088 81.7777 21.1395 81.4763 20.506 80.873C19.8724 80.2544 19.5557 79.5198 19.5557 78.6692C19.5557 77.803 19.8724 77.0608 20.506 76.4422C21.1395 75.8235 21.9088 75.5142 22.8139 75.5142C23.734 75.5142 24.5108 75.8235 25.1444 76.4422C25.793 77.0608 26.1173 77.803 26.1173 78.6692C26.1173 79.5198 25.793 80.2544 25.1444 80.873C24.5108 81.4763 23.734 81.7777 22.8139 81.7777Z" fill="white"/>
<path d="M58.9943 81.2674H53.1113L37.6124 56.8157C37.2203 56.1971 36.8958 55.5551 36.6395 54.8901H36.5036C36.6243 55.6017 36.6847 57.1251 36.6847 59.4602V81.2674H31.4805V48H37.748L52.7268 71.8717C53.3603 72.8618 53.7676 73.5422 53.9487 73.9133H54.0391C53.8883 73.0319 53.8128 71.5394 53.8128 69.4358V48H58.9943V81.2674Z" fill="white"/>
<path d="M84.3367 81.2674H66.1226V48H83.6128V52.6863H71.5078V62.105H82.6626V66.768H71.5078V76.6044H84.3367V81.2674Z" fill="white"/>
<path d="M110.223 52.6863H100.9V81.2674H95.5152V52.6863H86.2158V48H110.223V52.6863Z" fill="white"/>
</g>
<defs>
<clipPath id="clip0_773_2025">
<rect width="128" height="128" fill="white"/>
</clipPath>
</defs>
</svg>
