<svg width="128" height="128" fill="none" xmlns="http://www.w3.org/2000/svg"><g clip-path="url(#a)"><path d="M63.556 1.912a8.566 8.566 0 0 0-3.26.826L15.795 24a8.498 8.498 0 0 0-2.96 2.341 8.412 8.412 0 0 0-1.644 3.384L.214 77.485a8.372 8.372 0 0 0 1.155 6.47c.15.232.312.456.484.672l30.8 38.296a8.5 8.5 0 0 0 2.961 2.341 8.568 8.568 0 0 0 3.692.835l49.394-.012a8.577 8.577 0 0 0 3.691-.832 8.5 8.5 0 0 0 2.962-2.338l30.789-38.301a8.39 8.39 0 0 0 1.645-7.142l-10.996-47.76a8.406 8.406 0 0 0-1.643-3.384 8.496 8.496 0 0 0-2.961-2.342L67.682 2.738a8.57 8.57 0 0 0-4.126-.826Z" fill="#326CE5"/><path d="M63.975 18.143v.01c-1.472.014-2.664 1.336-2.664 2.972 0 .028.005.052.005.074-.002.222-.012.49-.005.684.035.946.24 1.668.365 2.535.17 1.42.215 2.547.224 3.687l.036-.164a40.884 40.884 0 0 0-.118-2.394c.139 1.228.24 2.364.186 3.392-.015-.325-.061-.677-.066-.982l-.036.164c.003.347.096.79.069 1.123-.061.29-.291.495-.467.742l-.025.12c.173-.226.354-.443.46-.698-.134.423-.42.796-.707 1.094.08-.124.146-.262.24-.385l.026-.12c-.145.203-.227.457-.385.61l-.006.006-.064 1.12c-1.614.133-3.217.379-4.797.736a34.28 34.28 0 0 0-17.398 9.935c-.296-.202-.8-.56-.95-.672l-.005-.005-.01.002c-.478.064-.95.207-1.57-.153-1.187-.8-2.271-1.907-3.584-3.24-.601-.637-1.037-1.246-1.754-1.861-.163-.141-.41-.33-.592-.473a3.194 3.194 0 0 0-1.87-.705c-.825-.028-1.62.294-2.14.947-.925 1.16-.628 2.933.658 3.96l.04.026c.174.143.39.326.552.446.762.56 1.457.849 2.21 1.293 1.594.984 2.91 1.798 3.956 2.779.402.427.474 1.19.53 1.525v.008l.847.754c-4.561 6.874-6.675 15.36-5.432 24.006l-1.103.324-.004.006c-.295.38-.712.972-1.135 1.147-1.366.43-2.908.588-4.77.783-.872.073-1.626.03-2.556.207-.205.04-.49.112-.713.164l-.023.006-.04.01c-1.58.384-2.6 1.838-2.27 3.273.327 1.435 1.873 2.306 3.464 1.963l.039-.006h.002c.02-.005.038-.015.05-.018.22-.048.496-.101.69-.154.913-.245 1.574-.603 2.393-.916 1.76-.632 3.218-1.16 4.637-1.365.582-.046 1.204.362 1.517.537l.008.004 1.152-.197c2.674 8.274 8.266 14.96 15.346 19.162l-.48 1.152.003.01c.174.45.364 1.057.237 1.492-.516 1.336-1.4 2.749-2.408 4.326-.488.728-.99 1.295-1.43 2.131-.107.201-.24.507-.342.717-.69 1.475-.184 3.177 1.143 3.816 1.335.643 2.99-.036 3.707-1.513l.007-.008v-.01c.1-.207.242-.478.329-.674.378-.866.505-1.607.77-2.441h-.003c.706-1.773 1.094-3.627 2.059-4.778.26-.31.688-.432 1.136-.552l.01-.004.6-1.084a34.43 34.43 0 0 0 24.556.062c.172.303.478.865.563 1.01l.004.006.008.004c.458.149.948.223 1.35.816.722 1.237 1.218 2.703 1.822 4.475.265.832.397 1.575.775 2.441.087.2.23.475.33.684.715 1.482 2.375 2.163 3.713 1.52 1.326-.64 1.832-2.34 1.143-3.815-.102-.21-.243-.518-.348-.719-.441-.836-.943-1.397-1.43-2.125-1.01-1.577-1.843-2.885-2.36-4.222-.213-.685.036-1.104.206-1.555l.006-.014-.01-.01a.833.833 0 0 1-.09-.168 6.269 6.269 0 0 1-.12-.29c-.08-.21-.16-.442-.224-.596 7.358-4.35 12.786-11.285 15.34-19.295.347.054.93.155 1.12.193l.01.002.009-.004c.402-.265.76-.606 1.475-.55 1.419.206 2.876.735 4.638 1.367.817.312 1.479.677 2.393.92.194.053.47.102.69.15.012.003.029.012.05.017h.002l.04.004c1.59.34 3.137-.528 3.464-1.963.327-1.435-.691-2.888-2.272-3.27-.227-.051-.551-.14-.775-.183-.93-.176-1.683-.132-2.557-.205-1.86-.195-3.402-.353-4.77-.783-.547-.213-.942-.872-1.138-1.148l-.006-.006-1.066-.31a34.42 34.42 0 0 0-.56-12.425 34.499 34.499 0 0 0-4.983-11.525c.278-.252.785-.701.932-.836l.007-.006v-.01c.044-.48.006-.97.495-1.494 1.045-.98 2.364-1.797 3.957-2.78.754-.443 1.454-.73 2.214-1.292.174-.128.408-.328.588-.473 1.286-1.026 1.584-2.798.658-3.96-.925-1.16-2.718-1.266-4.003-.241-.182.145-.43.332-.594.473-.717.618-1.16 1.226-1.76 1.863-1.313 1.335-2.398 2.446-3.586 3.246-.507.294-1.258.193-1.603.172h-.008l-1.004.719c-5.775-6.048-13.63-9.916-22.09-10.672a63.853 63.853 0 0 1-.064-1.174v-.008l-.006-.006c-.35-.333-.76-.61-.864-1.318v-.002c-.115-1.428.077-2.967.3-4.824.125-.867.332-1.59.366-2.535.009-.216-.005-.527-.005-.758 0-1.645-1.203-2.982-2.688-2.982h-.021ZM28.8 35.377Zm31.838 3.475-.787 13.93-.057.029-.002.013c-.002.05-.014.095-.02.143-.032.3-.121.59-.263.857-.038.07-.076.14-.121.207a2.346 2.346 0 0 1-.69.662c-.07.045-.147.08-.222.118-.274.131-.57.208-.873.226-.045.003-.088.014-.133.014-.05 0-.094-.022-.143-.026a2.332 2.332 0 0 1-.943-.304c-.045-.026-.094-.041-.137-.07l-.006.023.004-.022c-.044-.027-.102-.016-.144-.047l-.012-.01-.022.014-11.421-8.097c.093-.091.192-.174.287-.264a27.451 27.451 0 0 1 3.23-2.635c.237-.165.473-.332.715-.49a27.447 27.447 0 0 1 3.816-2.078c.24-.107.487-.204.73-.305a27.447 27.447 0 0 1 4.044-1.312c.12-.03.238-.067.36-.094.576-.13 1.162-.206 1.745-.3l.006-.024h.004l-.006.025c.355-.056.705-.14 1.061-.183Zm6.726.002c.197.024.39.068.586.097a27.685 27.685 0 0 1 11.36 4.38c.344.23.68.47 1.015.718a27.674 27.674 0 0 1 2.496 2.074c.144.134.297.257.438.395l-11.346 8.044-.04-.015-.01.008c-.045.032-.094.045-.14.074-.268.17-.568.283-.882.334-.077.012-.153.03-.23.033a2.348 2.348 0 0 1-1.255-.303 2.348 2.348 0 0 1-.746-.65c-.05-.07-.088-.146-.13-.22a2.35 2.35 0 0 1-.288-.887c-.006-.055-.026-.103-.03-.16v-.01l-.011-.006-.787-13.906ZM40.46 51.768l10.43 9.328-.012.056.01.008c.94.817 1.07 2.23.293 3.203-.028.035-.068.057-.098.09-.268.297-.607.52-.986.65-.043.015-.078.043-.121.055l-.014.002-.012.047-13.367 3.86c-.02-.185-.02-.37-.037-.555a27.423 27.423 0 0 1 1.691-12.186c.14-.37.29-.734.448-1.097a27.437 27.437 0 0 1 1.51-2.987c.09-.156.17-.32.265-.474Zm47.002.007c.097.158.176.324.27.483.57.971 1.082 1.976 1.53 3.01.15.346.298.694.434 1.046a27.782 27.782 0 0 1 1.04 3.288c.045.175.104.346.144.523.69 3.002.86 5.999.578 8.896l-13.434-3.87-.011-.057-.014-.004c-.045-.012-.084-.034-.127-.05a2.349 2.349 0 0 1-.79-.454c-.058-.052-.116-.103-.17-.16a2.35 2.35 0 0 1-.491-.824c-.027-.078-.044-.158-.063-.24a2.35 2.35 0 0 1-.03-.891c.009-.05.01-.096.02-.145.01-.045.038-.084.05-.13a2.33 2.33 0 0 1 .599-.995c.034-.033.054-.076.09-.107l.01-.01-.006-.03 10.371-9.28Zm9.228 3.305Zm-34.824 6.752h4.262l2.65 3.314-.95 4.133-3.83 1.84-3.837-1.848-.953-4.132 2.658-3.307Zm13.727 11.395c.18-.01.357.008.533.04l.014.003.023-.03 13.828 2.338c-.064.18-.147.35-.215.53a27.445 27.445 0 0 1-1.36 3.01c-.19.364-.386.722-.593 1.075a27.452 27.452 0 0 1-8.423 8.953c-.16.107-.31.225-.471.329l-5.365-12.967.015-.022-.004-.011c-.02-.045-.026-.092-.043-.137a2.35 2.35 0 0 1-.135-.89c.004-.08.006-.161.018-.241.05-.316.163-.62.334-.89.045-.072.098-.137.15-.204a2.35 2.35 0 0 1 .68-.578c.043-.024.079-.055.123-.076.289-.14.591-.218.891-.232Zm-23.31.056.013.002c.03 0 .06.008.092.01a2.35 2.35 0 0 1 1.422.603c.33.296.568.68.689 1.106.008.03.022.059.03.09.11.479.065.98-.13 1.43l-.005.013.04.05-5.31 12.837c-.155-.1-.3-.212-.451-.315a27.553 27.553 0 0 1-9.01-10 27.575 27.575 0 0 1-1.346-2.947c-.07-.181-.154-.356-.22-.54l13.707-2.325.023.03.014-.005c.147-.027.293-.04.442-.04Zm2.296 2.697Zm9.334 2.944c.058-.002.114.013.172.015.258.01.512.065.752.159.054.02.112.03.164.056v.002c.444.21.81.557 1.043.99l.006.012h.053L72.86 92.37c-.276.092-.557.173-.836.256-.33.098-.662.19-.996.277-.283.074-.564.15-.85.215-.124.029-.25.046-.376.072a27.526 27.526 0 0 1-4.18.56c-.28.017-.558.036-.838.044a27.532 27.532 0 0 1-4.32-.223c-.28-.036-.56-.085-.838-.13a27.525 27.525 0 0 1-4.055-.975c-.127-.041-.257-.072-.384-.115l6.742-12.188h.01l.007-.012c.026-.048.065-.085.094-.13a2.353 2.353 0 0 1 .866-.811c.264-.14.553-.23.85-.262.054-.005.103-.023.157-.025Z" fill="#fff"/></g><defs><clipPath id="a"><path fill="#fff" d="M0 0h128v128H0z"/></clipPath></defs></svg>