<svg width="128" height="128" viewBox="0 0 128 128" fill="none" xmlns="http://www.w3.org/2000/svg">
<path d="M106.704 96.264C105.904 95.368 105.536 93.712 105.128 91.944C104.728 90.184 104.272 88.288 102.824 87.064V87.056C102.296 86.5983 101.692 86.2355 101.04 85.984C103.056 80.024 102.264 74.088 100.24 68.728C97.7441 62.144 93.4001 56.408 90.0801 52.488C86.3681 47.8 82.7361 43.352 82.8001 36.784C82.9121 26.752 83.9041 8.15199 66.2561 8.12799C65.5361 8.12799 64.7921 8.15999 64.0161 8.22399C44.2881 9.80799 49.5201 30.648 49.2241 37.624C48.8641 42.728 47.8321 46.744 44.3201 51.736C40.2001 56.64 34.4001 64.568 31.6481 72.832C30.3521 76.728 29.7281 80.704 30.3041 84.464C30.1201 84.624 29.9521 84.792 29.7921 84.968C28.5841 86.256 27.6881 87.824 26.6881 88.88C25.7601 89.808 24.4321 90.16 22.9761 90.68C21.5121 91.208 19.9121 91.976 18.9441 93.84V93.848C18.5147 94.6861 18.3028 95.6186 18.3281 96.56C18.3281 97.424 18.4561 98.296 18.5841 99.136C18.8561 100.896 19.1281 102.552 18.7681 103.672C17.6161 106.832 17.4641 109.008 18.2801 110.592C19.0961 112.184 20.7601 112.88 22.6561 113.272C26.4401 114.072 31.5681 113.872 35.6081 116.008C39.9281 118.272 44.3201 119.072 47.8161 118.28C49.0385 118.04 50.187 117.515 51.1684 116.748C52.1498 115.98 52.9363 114.992 53.4641 113.864C56.2001 113.848 59.2001 112.696 64.0081 112.424C67.2721 112.168 71.3521 113.584 76.0321 113.328C76.1535 113.836 76.3361 114.328 76.5761 114.792L76.5841 114.8C78.4001 118.44 81.7841 120.096 85.3841 119.816C88.9841 119.528 92.8081 117.408 95.9041 113.72C98.8641 110.136 103.76 108.656 107.008 106.696C108.632 105.712 109.952 104.488 110.048 102.704C110.152 100.928 109.104 98.936 106.704 96.264Z" fill="black"/>
<path d="M108.568 102.624C108.512 103.72 107.712 104.544 106.248 105.424C103.304 107.2 98.0959 108.736 94.7759 112.768C91.8799 116.208 88.3599 118.088 85.2559 118.336C82.1599 118.576 79.4879 117.296 77.9039 114.128V114.112C76.9199 112.248 77.3279 109.312 78.1519 106.216C78.9759 103.12 80.1599 99.936 80.3199 97.352C80.4799 94.032 80.6719 91.136 81.2319 88.904C81.7919 86.664 82.6639 85.16 84.2159 84.304C84.2872 84.2654 84.3592 84.2281 84.4319 84.192C84.6079 87.064 86.0319 89.992 88.5439 90.624C91.2879 91.344 95.2479 88.992 96.9199 87.064L97.8959 87.032C99.3679 86.992 100.592 87.08 101.856 88.176C102.824 88.992 103.288 90.552 103.688 92.28C104.088 94.016 104.408 95.904 105.6 97.248C107.896 99.808 108.64 101.52 108.568 102.624ZM52.7359 110.744V110.768C52.4639 114.248 50.4959 116.144 47.4879 116.832C44.4719 117.52 40.3839 116.832 36.3039 114.704C31.7839 112.304 26.4079 112.544 22.9679 111.824C21.2399 111.464 20.1119 110.92 19.5999 109.92C19.0879 108.912 19.0719 107.16 20.1679 104.16V104.152L20.1759 104.136C20.7199 102.464 20.3199 100.632 20.0559 98.912C19.7919 97.2 19.6639 95.632 20.2479 94.544L20.2559 94.536C21.0079 93.088 22.1119 92.568 23.4799 92.08C24.8399 91.584 26.4639 91.2 27.7439 89.92L27.7519 89.912C28.9359 88.656 29.8399 87.088 30.8799 85.976C31.7599 85.04 32.6399 84.416 33.9599 84.408H33.9999C34.2491 84.4103 34.4979 84.4317 34.7439 84.472C36.5039 84.736 38.0319 85.968 39.5119 87.968L43.7759 95.736V95.744C44.9119 98.112 47.3039 100.72 49.3359 103.376C51.3679 106.04 52.9359 108.704 52.7359 110.744Z" fill="#F8BF11"/>
<path d="M73.9999 38.304C73.6559 37.632 72.9599 36.992 71.7599 36.504C69.2799 35.44 68.2079 35.368 66.8239 34.472C64.5839 33.024 62.7199 32.52 61.1759 32.52C60.4348 32.5236 59.6994 32.6507 58.9999 32.896C57.1119 33.536 55.8639 34.896 55.0799 35.632C54.9199 35.784 54.7279 35.912 54.2479 36.272C53.7679 36.616 53.0479 37.152 52.0079 37.936C51.0719 38.624 50.7759 39.536 51.0959 40.592C51.4159 41.648 52.4319 42.872 54.2959 43.928C55.4559 44.608 56.2559 45.528 57.1679 46.256C57.626 46.6368 58.1349 46.9518 58.6799 47.192C59.2559 47.44 59.9279 47.608 60.7599 47.656C62.7439 47.776 64.1999 47.176 65.4799 46.448C66.7599 45.712 67.8479 44.816 69.0959 44.408C71.6559 43.608 73.4879 42 74.0639 40.464C74.2093 40.1206 74.2788 39.7498 74.2678 39.377C74.2567 39.0043 74.1654 38.6383 73.9999 38.304Z" fill="#F8BF11"/>
<path d="M67.504 42.08C65.464 43.144 63.088 44.432 60.552 44.432C58.024 44.432 56.024 43.264 54.592 42.12C53.872 41.56 53.288 40.984 52.848 40.576C52.08 39.976 52.176 39.128 52.488 39.152C53.016 39.216 53.096 39.912 53.424 40.224C53.872 40.64 54.432 41.184 55.112 41.72C56.472 42.8 58.288 43.848 60.552 43.848C62.824 43.848 65.464 42.52 67.08 41.608C68 41.096 69.16 40.176 70.112 39.48C70.832 38.944 70.808 38.304 71.408 38.376C72.008 38.448 71.568 39.088 70.728 39.816C69.888 40.552 68.568 41.528 67.504 42.08Z" fill="#202020"/>
<path d="M98.6958 85.552C98.4185 85.5436 98.141 85.5436 97.8638 85.552H97.7838C98.4878 83.336 96.9358 81.712 92.8158 79.848C88.5438 77.968 85.1358 78.152 84.5598 81.968C84.5198 82.168 84.4878 82.368 84.4718 82.576C84.1405 82.6934 83.8194 82.8379 83.5118 83.008C81.4958 84.104 80.3998 86.096 79.7918 88.544C79.1838 90.984 79.0078 93.936 78.8398 97.264C78.7358 98.928 78.0478 101.184 77.3518 103.584C70.3518 108.576 60.6318 110.736 52.3758 105.104C51.8158 104.224 51.1758 103.344 50.5118 102.48C50.0902 101.929 49.6636 101.383 49.2318 100.84C49.9667 100.86 50.6974 100.723 51.3758 100.44C51.7147 100.298 52.0213 100.088 52.2771 99.8243C52.5328 99.5603 52.7324 99.2473 52.8638 98.904C53.3678 97.544 52.8638 95.64 51.2478 93.464C49.6398 91.28 46.9118 88.824 42.9038 86.36C39.9598 84.52 38.3118 82.28 37.5438 79.848C36.7678 77.408 36.8718 74.768 37.4638 72.168C38.6078 67.168 41.5438 62.304 43.4078 59.256C43.9118 58.888 43.5918 59.944 41.5198 63.792C39.6638 67.312 36.1838 75.432 40.9438 81.776C41.0718 77.264 42.1438 72.656 43.9598 68.36C46.5918 62.384 52.1038 52.032 52.5358 43.776C52.7678 43.936 53.5358 44.464 53.8878 44.656C54.8958 45.256 55.6558 46.128 56.6398 46.92C57.923 48.003 59.5615 48.5729 61.2398 48.52C63.1598 48.52 64.6558 47.888 65.8958 47.176C67.2558 46.408 68.3278 45.544 69.3598 45.216C71.5198 44.536 73.2478 43.336 74.2238 41.936C75.9038 48.576 79.8238 58.152 82.3358 62.824C83.6718 65.304 86.3358 70.576 87.4798 76.92C88.2078 76.904 89.0078 77 89.8718 77.224C92.8718 69.44 87.3198 61.048 84.7838 58.712C83.7598 57.72 83.7038 57.272 84.2238 57.296C86.9678 59.728 90.5838 64.632 91.9038 70.16C92.5038 72.68 92.6238 75.328 91.9838 77.944C92.3038 78.08 92.6238 78.216 92.9438 78.376C97.7678 80.72 99.5518 82.76 98.6958 85.552Z" fill="white"/>
<path d="M74.2241 30.664C74.2586 32.5572 73.6525 34.4065 72.5041 35.912C71.9297 35.6554 71.3482 35.4153 70.7601 35.192L69.7441 34.832C69.9761 34.552 70.4241 34.232 70.6001 33.816C70.8534 33.1986 70.9891 32.5393 71.0001 31.872L71.0081 31.792C71.0279 31.151 70.9331 30.5116 70.7281 29.904C70.567 29.3491 70.2701 28.8431 69.8641 28.432C69.7031 28.2611 69.51 28.1237 69.2959 28.0276C69.0817 27.9315 68.8507 27.8786 68.6161 27.872H68.5601C68.1121 27.8782 67.6821 28.0491 67.3521 28.352C66.9153 28.7302 66.5799 29.2114 66.3761 29.752C66.124 30.3698 65.9883 31.0289 65.9761 31.696V31.776C65.9635 32.1508 65.9876 32.5259 66.0481 32.896C65.1405 32.4771 64.1913 32.1553 63.2161 31.936C63.1696 31.5831 63.1429 31.2279 63.1361 30.872V30.768C63.1022 29.5385 63.3427 28.3169 63.8401 27.192C64.2637 26.1562 64.9537 25.251 65.8401 24.568C66.624 23.9348 67.6004 23.5878 68.6081 23.584H68.6561C69.6561 23.584 70.5121 23.872 71.3921 24.512C72.2981 25.1753 73.0084 26.0707 73.4481 27.104C73.9521 28.208 74.2001 29.288 74.2241 30.568L74.2321 30.664H74.2241ZM59.1041 31.976C58.3208 32.2001 57.5743 32.537 56.8881 32.976C56.9417 32.5781 56.9471 32.1752 56.9041 31.776V31.712C56.8551 31.1834 56.7256 30.6654 56.5201 30.176C56.3554 29.7453 56.0924 29.359 55.7521 29.048C55.627 28.9253 55.4778 28.8299 55.3139 28.7679C55.15 28.706 54.975 28.6787 54.8001 28.688C54.4641 28.72 54.1841 28.88 53.9201 29.208C53.639 29.5749 53.4473 30.0021 53.3601 30.456C53.2353 30.9932 53.2002 31.5473 53.2561 32.096V32.16C53.3021 32.6916 53.4316 33.2127 53.6401 33.704C53.8316 34.1958 54.1522 34.627 54.5681 34.952L53.7521 35.592L53.1281 36.04C52.5738 35.4949 52.1381 34.8413 51.8481 34.12C51.4241 33.16 51.1921 32.2 51.1281 31.072V31.064C51.0548 30.0107 51.1769 28.9529 51.4881 27.944C51.7269 27.0641 52.1868 26.2599 52.8241 25.608C53.0914 25.3128 53.4172 25.0764 53.7808 24.9139C54.1444 24.7514 54.5378 24.6663 54.9361 24.664C55.6081 24.664 56.2001 24.888 56.8161 25.384C57.5199 25.962 58.0672 26.7075 58.4081 27.552C58.8321 28.512 59.0481 29.472 59.1201 30.608C59.1441 31.088 59.1441 31.536 59.1041 31.976Z" fill="white"/>
<path d="M62.4479 34.68C62.5279 34.952 62.9679 34.912 63.2239 35.04C63.4399 35.152 63.6239 35.4 63.8639 35.408C64.1039 35.416 64.4719 35.328 64.5039 35.088C64.5439 34.784 64.0879 34.584 63.7999 34.472C63.4239 34.32 62.9439 34.248 62.5919 34.448C62.5119 34.488 62.4239 34.584 62.4479 34.68ZM59.8719 34.68C59.7919 34.952 59.3519 34.912 59.1039 35.04C58.8799 35.152 58.7039 35.4 58.4559 35.408C58.2159 35.416 57.8479 35.328 57.8159 35.088C57.7759 34.784 58.2319 34.584 58.5199 34.472C58.8959 34.32 59.3839 34.248 59.7359 34.448C59.8159 34.488 59.8959 34.584 59.8719 34.68Z" fill="#202020"/>
</svg>
