<svg width="180" height="180" viewBox="0 0 180 180" fill="none" xmlns="http://www.w3.org/2000/svg">
<g filter="url(#filter0_d_749_63)">
<path d="M82.5389 121.646C74.1078 131.941 60.2754 135.743 47.9261 131.163C35.5848 126.574 27.36 114.585 27.36 101.16C27.36 86.5517 37.5281 77.148 51.0909 64.607C62.9245 53.663 77.3438 40.3275 89.82 19.08C102.296 40.3275 116.715 53.663 128.541 64.607C142.104 77.148 152.28 86.5517 152.28 101.16C152.28 114.585 144.055 126.574 131.714 131.163C119.365 135.743 105.532 131.941 97.1011 121.646C101.083 130.863 105.802 139.731 111.219 148.154C113.281 151.348 111.036 155.88 107.309 155.88H72.3312C68.5955 155.88 66.3508 151.348 68.421 148.154C73.8382 139.731 78.5573 130.863 82.5389 121.646Z" fill="#CA1D1D"/>
</g>
<defs>
<filter id="filter0_d_749_63" x="23.36" y="17.08" width="132.92" height="144.8" filterUnits="userSpaceOnUse" color-interpolation-filters="sRGB">
<feFlood flood-opacity="0" result="BackgroundImageFix"/>
<feColorMatrix in="SourceAlpha" type="matrix" values="0 0 0 0 0 0 0 0 0 0 0 0 0 0 0 0 0 0 127 0" result="hardAlpha"/>
<feOffset dy="2"/>
<feGaussianBlur stdDeviation="2"/>
<feComposite in2="hardAlpha" operator="out"/>
<feColorMatrix type="matrix" values="0 0 0 0 0 0 0 0 0 0 0 0 0 0 0 0 0 0 0.4 0"/>
<feBlend mode="normal" in2="BackgroundImageFix" result="effect1_dropShadow_749_63"/>
<feBlend mode="normal" in="SourceGraphic" in2="effect1_dropShadow_749_63" result="shape"/>
</filter>
</defs>
</svg>
