<svg width="128" height="128" fill="none" xmlns="http://www.w3.org/2000/svg"><g clip-path="url(#a)"><circle cx="64" cy="64" r="64" fill="#02000B"/><g filter="url(#b)"><path d="M59.687 83.98c-4.995 6.02-13.189 8.244-20.504 5.566C31.873 86.862 27 79.85 27 72c0-8.543 6.023-14.042 14.058-21.376C48.068 44.224 56.609 36.425 64 24c7.39 12.425 15.932 20.224 22.938 26.624C94.972 57.958 101 63.457 101 72c0 7.85-4.872 14.862-12.183 17.546-7.315 2.678-15.51.455-20.504-5.566a106.908 106.908 0 0 0 8.363 15.502c1.222 1.868-.108 4.518-2.316 4.518H53.64c-2.213 0-3.543-2.65-2.316-4.518a106.908 106.908 0 0 0 8.363-15.502Z" fill="#CA1D1D"/></g></g><defs><clipPath id="a"><rect width="128" height="128" rx="64" fill="#fff"/></clipPath><filter id="b" x="25" y="24" width="78" height="84" filterUnits="userSpaceOnUse" color-interpolation-filters="sRGB"><feFlood flood-opacity="0" result="BackgroundImageFix"/><feColorMatrix in="SourceAlpha" values="0 0 0 0 0 0 0 0 0 0 0 0 0 0 0 0 0 0 127 0" result="hardAlpha"/><feOffset dy="2"/><feGaussianBlur stdDeviation="1"/><feComposite in2="hardAlpha" operator="out"/><feColorMatrix values="0 0 0 0 0.792157 0 0 0 0 0.113725 0 0 0 0 0.113725 0 0 0 0.2 0"/><feBlend in2="BackgroundImageFix" result="effect1_dropShadow_754_66"/><feBlend in="SourceGraphic" in2="effect1_dropShadow_754_66" result="shape"/></filter></defs></svg>