<svg xmlns="http://www.w3.org/2000/svg" width="100" height="100" fill="none"><g clip-path="url(#a)"><path fill="#0E1337" d="M84 .5H16C7.44.5.5 7.44.5 16v68c0 8.56 6.94 15.5 15.5 15.5h68c8.56 0 15.5-6.94 15.5-15.5V16C99.5 7.44 92.56.5 84 .5Z"/><path stroke="#EFEFEF" d="M84 .5H16C7.44.5.5 7.44.5 16v68c0 8.56 6.94 15.5 15.5 15.5h68c8.56 0 15.5-6.94 15.5-15.5V16C99.5 7.44 92.56.5 84 .5Z"/><path fill="#CA1D1D" d="M46.27 66.482c-4.32 5.269-11.407 7.214-17.733 4.87C22.214 69.004 18 62.87 18 56c0-7.475 5.21-12.287 12.158-18.704C36.221 31.696 43.608 24.872 50 14c6.392 10.872 13.78 17.696 19.838 23.296C76.787 43.713 82 48.525 82 56c0 6.87-4.214 13.004-10.537 15.352-6.326 2.344-13.413.398-17.733-4.87a93.902 93.902 0 0 0 7.233 13.565C62.02 81.68 60.87 84 58.96 84H41.04c-1.914 0-3.064-2.319-2.003-3.953a93.902 93.902 0 0 0 7.233-13.565Z"/></g><defs><clipPath id="a"><path fill="#fff" d="M0 0h100v100H0z"/></clipPath></defs></svg>