<svg xmlns="http://www.w3.org/2000/svg" width="100" height="100" fill="none"><g clip-path="url(#a)"><rect width="100" height="100" fill="#0E1337" rx="50"/><path fill="#CA1D1D" d="M46.736 63.985a14.004 14.004 0 0 1-15.516 4.174A14.006 14.006 0 0 1 22 55c0-6.407 4.558-10.532 10.638-16.032C37.943 34.168 44.408 28.319 50 19c5.593 9.32 12.057 15.168 17.358 19.968C73.438 44.468 78 48.593 78 55a14.006 14.006 0 0 1-9.22 13.16 14.004 14.004 0 0 1-15.516-4.175 79.95 79.95 0 0 0 6.329 11.627c.924 1.4-.082 3.388-1.753 3.388H42.16c-1.675 0-2.68-1.987-1.753-3.388a79.95 79.95 0 0 0 6.329-11.627Z"/></g><defs><clipPath id="a"><path fill="#fff" d="M0 0h100v100H0z"/></clipPath></defs></svg>