<svg width="500" height="500" fill="none" xmlns="http://www.w3.org/2000/svg"><g clip-path="url(#a)"><path fill="#B99FE4" d="M66 372.662h368v61.333H66z"/><path fill="#00B0FF" d="M66 311.33h368v61.332H66z"/><path fill="#7AC74D" d="M66 249.997h368v61.332H66z"/><path fill="#FABA2C" d="M66 188.665h368v61.332H66z"/><path fill="#FF8353" d="M66 127.332h368v61.332H66z"/><path fill="#FF575B" d="M66 66h368v61.332H66z"/><path opacity=".08" fill="#000" d="M0 0h500v500H0z"/><g filter="url(#b)"><path fill-rule="evenodd" clip-rule="evenodd" d="M500 0H0v500h500V0ZM137.307 366.844c33.21 12.294 70.408 2.088 93.081-25.546a492.441 492.441 0 0 1-37.966 71.153c-5.567 8.573.469 20.737 10.516 20.737H297c10.025 0 16.061-12.164 10.515-20.737a492.54 492.54 0 0 1-37.966-71.153c22.673 27.634 59.872 37.84 93.082 25.546 33.188-12.316 55.307-44.498 55.307-80.532 0-39.194-27.344-64.43-63.794-98.071l-.045-.041-.084-.078C322.228 158.762 283.49 122.981 249.969 66c-33.551 57.031-72.328 92.825-104.151 122.2C109.344 221.862 82 247.102 82 286.312c0 36.034 22.118 68.216 55.307 80.532Z" fill="#000"/></g></g><defs><clipPath id="a"><path fill="#fff" d="M0 0h500v500H0z"/></clipPath><filter id="b" x="-2" y="0" width="504" height="504" filterUnits="userSpaceOnUse" color-interpolation-filters="sRGB"><feFlood flood-opacity="0" result="BackgroundImageFix"/><feColorMatrix in="SourceAlpha" values="0 0 0 0 0 0 0 0 0 0 0 0 0 0 0 0 0 0 127 0" result="hardAlpha"/><feOffset dy="2"/><feGaussianBlur stdDeviation="1"/><feComposite in2="hardAlpha" operator="out"/><feColorMatrix values="0 0 0 0 0 0 0 0 0 0 0 0 0 0 0 0 0 0 0.2 0"/><feBlend in2="BackgroundImageFix" result="effect1_dropShadow_707_199"/><feBlend in="SourceGraphic" in2="effect1_dropShadow_707_199" result="shape"/></filter></defs></svg>